<svg width="128" height="128" viewBox="0 0 128 128" fill="none" xmlns="http://www.w3.org/2000/svg">
<path d="M108 32H20C15.5817 32 12 35.5817 12 40V108C12 112.418 15.5817 116 20 116H108C112.418 116 116 112.418 116 108V40C116 35.5817 112.418 32 108 32Z" fill="url(#paint0_linear_2_62)"/>
<path d="M108 12H20C15.5817 12 12 15.5817 12 20V104C12 108.418 15.5817 112 20 112H108C112.418 112 116 108.418 116 104V20C116 15.5817 112.418 12 108 12Z" fill="#F6F5F4"/>
<rect x="24" y="40" width="80" height="41" rx="20.5" fill="url(#paint1_linear_2_62)"/>
<rect x="24" y="43" width="80" height="41" rx="20.5" fill="#FFBF48"/>
<path d="M70.0207 62.3266C70.0067 62.5731 70 64.071 70 64.3211C70 71.858 76.1187 77.2961 83.6556 77.2961C91.1923 77.2961 97.3112 71.858 97.3112 64.3211C97.3112 64.071 97.3045 62.5731 97.2903 62.3266C96.9034 69.5172 90.9422 75.2366 83.6556 75.2366C76.369 75.2366 70.4076 69.5172 70.0207 62.3266Z" fill="url(#paint2_linear_2_62)"/>
<path d="M83.6556 75.3112C91.1973 75.3112 97.3112 69.1973 97.3112 61.6556C97.3112 54.1138 91.1973 48 83.6556 48C76.1138 48 70 54.1138 70 61.6556C70 69.1973 76.1138 75.3112 83.6556 75.3112Z" fill="#FEEED1"/>
<defs>
<linearGradient id="paint0_linear_2_62" x1="12" y1="64" x2="116" y2="64" gradientUnits="userSpaceOnUse">
<stop stop-color="#BABDB6"/>
<stop offset="0.0416667" stop-color="#F6F5F4"/>
<stop offset="0.0833333" stop-color="#D5D3CF"/>
<stop offset="0.916667" stop-color="#DEDDDA"/>
<stop offset="0.958333" stop-color="#F6F5F4"/>
<stop offset="1" stop-color="#BABDB6"/>
</linearGradient>
<linearGradient id="paint1_linear_2_62" x1="24" y1="60.5" x2="104" y2="60.5" gradientUnits="userSpaceOnUse">
<stop offset="0.00416667" stop-color="#E49500"/>
<stop offset="0.5125" stop-color="#FFA600"/>
<stop offset="1" stop-color="#E49500"/>
</linearGradient>
<linearGradient id="paint2_linear_2_62" x1="70" y1="69.8113" x2="97.3112" y2="69.8113" gradientUnits="userSpaceOnUse">
<stop stop-color="#FFD13A"/>
<stop offset="0.4625" stop-color="#FDDC71"/>
<stop offset="1" stop-color="#FFD13A"/>
</linearGradient>
</defs>
</svg>
