<?xml version="1.0" encoding="UTF-8" standalone="no"?><!-- Generator: Gravit.io --><svg xmlns="http://www.w3.org/2000/svg" xmlns:xlink="http://www.w3.org/1999/xlink" style="isolation:isolate" viewBox="0 0 512 512" width="512pt" height="512pt"><defs><clipPath id="_clipPath_wG76Io03ff6HNfgMgAMV7URBBL1RSVNN"><rect width="512" height="512"/></clipPath></defs><g clip-path="url(#_clipPath_wG76Io03ff6HNfgMgAMV7URBBL1RSVNN)"><path d=" M 128.149 142.729 L 383.851 142.729 C 438.573 142.729 483 187.157 483 241.879 L 483 270.121 C 483 324.843 438.573 369.271 383.851 369.271 L 128.149 369.271 C 73.427 369.271 29 324.843 29 270.121 L 29 241.879 C 29 187.157 73.427 142.729 128.149 142.729 Z  M 273.729 256 C 273.729 203.7 316.19 161.24 368.49 161.24 C 420.789 161.24 463.25 203.7 463.25 256 C 463.25 308.3 420.789 350.76 368.49 350.76 C 316.19 350.76 273.729 308.3 273.729 256 Z " fill-rule="evenodd" fill="rgb(0,0,0)"/></g></svg>