<svg width="16" height="16" viewBox="0 0 16 16" fill="none" xmlns="http://www.w3.org/2000/svg">
<path fill-rule="evenodd" clip-rule="evenodd" d="M2.07692 1H13.9231C14.5178 1 15 1.50144 15 2.12V13.88C15 14.4986 14.5178 15 13.9231 15H2.07692C1.48215 15 1 14.4986 1 13.88V2.12C1 1.50144 1.48215 1 2.07692 1ZM3 8C3 6.34315 4.34315 5 6 5H10C11.6569 5 13 6.34315 13 8C13 9.65685 11.6569 11 10 11H6C4.34315 11 3 9.65685 3 8ZM10 10C11.1046 10 12 9.10457 12 8C12 6.89543 11.1046 6 10 6C8.89543 6 8 6.89543 8 8C8 9.10457 8.89543 10 10 10Z" fill="black"/>
</svg>
