<?xml version="1.0" encoding="UTF-8" standalone="no"?><!-- Generator: Gravit.io --><svg xmlns="http://www.w3.org/2000/svg" xmlns:xlink="http://www.w3.org/1999/xlink" style="isolation:isolate" viewBox="0 0 512 512" width="512pt" height="512pt"><defs><clipPath id="_clipPath_nERBIN9t0EBfjd4U80zp2FEGGNZAoObl"><rect width="512" height="512"/></clipPath></defs><g clip-path="url(#_clipPath_nERBIN9t0EBfjd4U80zp2FEGGNZAoObl)"><path d=" M 238.433 286.549 Q 238.622 287.38 238.881 288.009 L 238.881 288.009 L 238.881 288.009 Q 239.846 290.354 242.212 290.354 L 242.212 290.354 L 242.212 290.354 Q 244.142 290.354 245.045 289.387 L 245.045 289.387 L 245.045 289.387 Q 245.948 288.42 246.633 285.664 L 246.633 285.664 L 246.633 285.664 Q 247.567 282.088 249.092 278.863 L 249.092 278.863 L 249.092 278.863 Q 250.618 275.638 252.081 273.674 L 252.081 273.674 L 252.081 273.674 Q 253.544 271.71 254.354 271.71 L 254.354 271.71 L 254.354 271.71 Q 255.039 271.71 255.039 272.648 L 255.039 272.648 L 255.039 272.648 Q 255.039 274.055 254.229 277.749 L 254.229 277.749 L 254.229 277.749 Q 253.358 281.97 253.358 283.612 L 253.358 283.612 L 253.358 283.612 Q 253.358 286.895 254.976 288.625 L 254.976 288.625 L 254.976 288.625 Q 256.595 290.354 259.771 290.354 L 259.771 290.354 L 259.771 290.354 Q 263.693 290.354 266.775 288.361 L 266.775 288.361 L 266.775 288.361 Q 268.255 287.404 269.641 286.19 Q 269.987 286.979 270.449 287.657 L 270.449 287.657 L 270.449 287.657 Q 272.286 290.354 276.333 290.354 L 276.333 290.354 L 276.333 290.354 Q 281.123 290.354 286.561 284.677 L 286.561 284.677 L 286.561 284.677 Q 286.803 285.185 287.073 285.664 L 287.073 285.664 L 287.073 285.664 Q 289.72 290.354 295.199 290.354 L 295.199 290.354 L 295.199 290.354 Q 299.184 290.354 302.328 288.361 L 302.328 288.361 L 302.328 288.361 Q 304.728 286.84 306.855 284.67 Q 307.099 285.181 307.371 285.664 L 307.371 285.664 L 307.371 285.664 Q 310.018 290.354 315.497 290.354 L 315.497 290.354 L 315.497 290.354 Q 319.482 290.354 322.626 288.361 L 322.626 288.361 L 322.626 288.361 Q 325.77 286.367 328.448 283.26 L 328.448 283.26 L 328.448 283.26 Q 328.62 283.072 328.767 282.862 L 328.767 282.862 C 329.059 284.79 329.777 286.399 330.896 287.714 C 332.46 289.474 334.479 290.353 336.953 290.353 L 336.953 290.353 L 336.953 290.353 L 336.953 290.353 C 340.274 290.353 342.553 288.652 343.921 285.308 L 343.855 286.247 C 343.855 287.714 344.247 288.712 344.899 289.356 C 345.679 290.001 346.721 290.353 348.218 290.353 C 349.718 290.353 350.824 290.001 351.54 289.356 C 352.191 288.712 352.517 287.655 352.517 286.189 C 352.517 283.49 352.647 281.026 352.907 278.855 C 353.169 276.684 353.559 274.455 354.015 272.049 C 354.471 269.82 354.667 268.237 354.667 267.357 C 354.667 266.476 354.405 265.83 353.819 265.362 C 353.233 264.892 352.451 264.657 351.41 264.657 C 350.434 264.657 349.522 264.716 348.674 264.892 C 348.48 264.013 348.218 263.425 347.894 263.073 C 347.568 262.78 346.917 262.604 345.941 262.604 C 342.944 262.604 340.144 263.425 337.474 265.126 C 334.805 266.828 332.655 269.116 331.028 271.873 C 329.998 273.654 329.307 275.505 328.938 277.411 Q 328.516 276.987 327.887 276.987 L 327.887 276.987 L 327.887 276.987 L 327.887 276.987 Q 326.953 276.987 326.206 277.808 L 326.206 277.808 L 326.206 277.808 Q 323.218 281.149 321.287 282.527 L 321.287 282.527 L 321.287 282.527 Q 319.357 283.905 316.804 283.905 L 316.804 283.905 L 316.804 283.905 Q 315.186 283.905 314.189 282.879 L 314.189 282.879 L 314.189 282.879 Q 313.193 281.853 312.757 279.449 L 312.757 279.449 L 312.757 279.449 Q 319.793 270.42 323.902 261.216 L 323.902 261.216 L 323.902 261.216 Q 328.012 252.011 328.012 245.034 L 328.012 245.034 L 328.012 245.034 Q 328.012 240.168 326.3 237.559 L 326.3 237.559 L 326.3 237.559 Q 324.587 234.95 321.599 234.95 L 321.599 234.95 L 321.599 234.95 Q 316.306 234.95 312.477 241.516 L 312.477 241.516 L 312.477 241.516 Q 308.648 248.083 306.687 257.229 L 306.687 257.229 L 306.687 257.229 Q 304.725 266.375 304.725 273.528 L 304.725 273.528 L 304.725 273.528 Q 304.725 276.307 305.094 278.703 L 305.094 278.703 L 305.094 278.703 Q 302.65 281.342 300.989 282.527 L 300.989 282.527 L 300.989 282.527 Q 299.059 283.905 296.506 283.905 L 296.506 283.905 L 296.506 283.905 Q 294.888 283.905 293.891 282.879 L 293.891 282.879 L 293.891 282.879 Q 292.895 281.853 292.459 279.449 L 292.459 279.449 L 292.459 279.449 Q 299.495 270.42 303.604 261.216 L 303.604 261.216 L 303.604 261.216 Q 307.714 252.011 307.714 245.034 L 307.714 245.034 L 307.714 245.034 Q 307.714 240.168 306.002 237.559 L 306.002 237.559 L 306.002 237.559 Q 304.289 234.95 301.301 234.95 L 301.301 234.95 L 301.301 234.95 Q 296.008 234.95 292.179 241.516 L 292.179 241.516 L 292.179 241.516 Q 288.35 248.083 286.388 257.229 L 286.388 257.229 L 286.388 257.229 Q 284.427 266.375 284.427 273.528 L 284.427 273.528 L 284.427 273.528 Q 284.427 276.315 284.798 278.716 Q 282.557 281.193 281.127 282.439 L 281.127 282.439 L 281.127 282.439 Q 279.446 283.905 278.325 283.905 L 278.325 283.905 L 278.325 283.905 Q 277.142 283.905 276.644 282.967 L 276.644 282.967 L 276.644 282.967 Q 276.146 282.029 276.146 280.27 L 276.146 280.27 L 276.146 280.27 Q 276.146 277.983 277.64 271.534 L 277.64 271.534 L 277.64 271.534 Q 278.823 266.199 278.823 264.733 L 278.823 264.733 L 278.823 264.733 Q 278.823 262.74 275.648 262.74 L 275.648 262.74 L 275.648 262.74 Q 273.593 262.74 272.659 263.443 L 272.659 263.443 L 272.659 263.443 Q 271.725 264.147 271.165 266.023 L 271.165 266.023 L 271.165 266.023 Q 270.044 269.599 269.328 273.733 L 269.328 273.733 L 269.328 273.733 Q 268.725 277.213 268.63 279.633 L 268.63 279.633 Q 266.899 281.477 265.717 282.469 L 265.717 282.469 L 265.717 282.469 Q 264.005 283.905 262.759 283.905 L 262.759 283.905 L 262.759 283.905 Q 260.954 283.905 260.954 281.56 L 260.954 281.56 L 260.954 281.56 Q 260.954 279.918 262.137 274.818 L 262.137 274.818 L 262.137 274.818 Q 263.507 268.837 263.507 266.551 L 263.507 266.551 L 263.507 266.551 Q 263.507 262.74 259.459 262.74 L 259.459 262.74 L 259.459 262.74 Q 257.405 262.74 254.945 264.088 L 254.945 264.088 L 254.945 264.088 Q 252.486 265.437 249.933 268.603 L 249.933 268.603 L 249.933 268.603 Q 247.38 271.769 245.325 276.811 L 245.325 276.811 L 245.325 276.811 Q 245.575 274.231 245.948 272.472 L 245.948 272.472 L 245.948 272.472 Q 246.322 270.713 246.944 268.368 L 246.944 268.368 L 246.944 268.368 Q 247.878 265.085 247.878 264.147 L 247.878 264.147 L 247.878 264.147 Q 247.878 263.326 247.38 263.033 L 247.38 263.033 L 247.38 263.033 Q 246.882 262.74 245.637 262.74 L 245.637 262.74 L 245.637 262.74 Q 243.333 262.74 242.057 263.531 L 242.057 263.531 L 242.057 263.531 Q 240.78 264.323 240.22 266.023 L 240.22 266.023 L 240.22 266.023 Q 238.077 272.403 237.927 279.443 Q 236.085 281.426 234.865 282.469 L 234.865 282.469 L 234.865 282.469 Q 233.184 283.905 232.001 283.905 L 232.001 283.905 L 232.001 283.905 Q 231.254 283.905 230.787 283.377 L 230.787 283.377 L 230.787 283.377 Q 230.32 282.85 230.32 281.97 L 230.32 281.97 L 230.32 281.97 Q 230.32 279.332 231.752 272.59 L 231.752 272.59 L 231.752 272.59 Q 232.686 267.958 232.686 266.727 L 232.686 266.727 L 232.686 266.727 Q 232.686 264.675 229.635 264.675 L 229.635 264.675 L 229.635 264.675 Q 228.203 264.675 226.895 264.909 L 226.895 264.909 L 226.895 264.909 Q 226.584 263.619 226.117 263.121 L 226.117 263.121 L 226.117 263.121 Q 225.65 262.623 224.28 262.623 L 224.28 262.623 L 224.28 262.623 Q 220.053 262.623 216.277 265.092 Q 215.604 264.733 214.433 264.733 L 214.433 264.733 L 214.433 264.733 L 214.433 264.733 L 214.433 264.733 L 214.433 264.733 L 214.433 264.733 L 214.433 264.733 L 214.433 264.733 L 214.433 264.733 Q 210.007 264.733 206.558 264.206 L 206.558 264.206 L 206.558 264.206 Q 209.812 256.232 209.812 249.49 L 209.812 249.49 L 209.812 249.49 Q 209.812 244.799 207.371 242.102 L 207.371 242.102 L 207.371 242.102 Q 204.93 239.405 200.765 239.405 L 200.765 239.405 L 200.765 239.405 Q 197.38 239.405 194.614 240.988 L 194.614 240.988 L 194.614 240.988 Q 191.848 242.571 190.253 245.767 L 190.253 245.767 L 190.253 245.767 Q 188.659 248.962 188.659 253.594 L 188.659 253.594 L 188.659 253.594 Q 188.659 258.225 190.677 261.773 L 190.677 261.773 L 190.677 261.773 Q 192.694 265.32 196.664 267.547 L 196.664 267.547 L 196.664 267.547 Q 193.345 273.938 189.375 278.159 L 189.375 278.159 L 189.375 278.159 Q 185.405 282.381 182.02 282.381 L 182.02 282.381 L 182.02 282.381 Q 178.701 282.381 177.041 277.72 L 177.041 277.72 L 177.041 277.72 Q 175.381 273.059 175.381 264.088 L 175.381 264.088 L 175.381 264.088 Q 175.381 255.528 177.334 244.975 L 177.334 244.975 L 177.334 244.975 Q 177.464 244.037 177.464 243.685 L 177.464 243.685 L 177.464 243.685 Q 177.464 240.344 173.168 240.344 L 173.168 240.344 L 173.168 240.344 Q 170.565 240.344 169.491 241.428 L 169.491 241.428 L 169.491 241.428 Q 168.417 242.513 167.831 245.562 L 167.831 245.562 L 167.831 245.562 Q 166.204 253.77 166.204 264.088 L 166.204 264.088 L 166.204 264.088 Q 166.204 276.166 169.523 283.26 L 169.523 283.26 L 169.523 283.26 Q 172.843 290.354 179.612 290.354 L 179.612 290.354 L 179.612 290.354 Q 186.186 290.354 192.727 284.579 L 192.727 284.579 L 192.727 284.579 Q 199.268 278.804 203.889 270.069 L 203.889 270.069 L 203.889 270.069 Q 206.955 270.692 210.697 270.774 Q 210.344 271.329 210.022 271.915 L 210.022 271.915 L 210.022 271.915 Q 207.718 276.107 207.718 280.798 L 207.718 280.798 L 207.718 280.798 Q 207.718 285.078 210.022 287.716 L 210.022 287.716 L 210.022 287.716 Q 212.326 290.354 216.186 290.354 L 216.186 290.354 L 216.186 290.354 L 216.186 290.354 Q 221.105 290.354 224.343 285.429 L 224.343 285.429 L 224.343 285.429 Q 225.214 287.716 226.927 289.035 L 226.927 289.035 L 226.927 289.035 Q 228.639 290.354 230.693 290.354 L 230.693 290.354 L 230.693 290.354 Q 233.371 290.354 236.235 288.302 L 236.235 288.302 L 236.235 288.302 Q 237.358 287.498 238.433 286.549 Z  M 339.492 284.428 C 340.73 284.428 341.838 283.666 342.814 282.141 C 343.791 280.614 344.703 277.916 345.485 273.986 L 346.721 268.061 C 344.963 268.119 343.269 268.706 341.772 269.88 C 340.274 271.111 339.036 272.694 338.125 274.631 C 337.214 276.566 336.758 278.679 336.758 280.85 C 336.758 282.023 337.019 282.903 337.539 283.49 C 337.995 284.135 338.646 284.428 339.492 284.428 L 339.492 284.428 L 339.492 284.428 L 339.492 284.428 L 339.492 284.428 L 339.492 284.428 L 339.492 284.428 L 339.492 284.428 L 339.492 284.428 Z  M 195.233 253.183 L 195.233 253.183 Q 195.233 258.929 199.333 261.685 L 199.333 261.685 L 199.333 261.685 Q 201.871 255.118 201.871 250.838 L 201.871 250.838 L 201.871 250.838 Q 201.871 248.376 201.155 247.232 L 201.155 247.232 L 201.155 247.232 Q 200.44 246.089 199.203 246.089 L 199.203 246.089 L 199.203 246.089 Q 197.446 246.089 196.339 247.936 L 196.339 247.936 L 196.339 247.936 Q 195.233 249.783 195.233 253.183 L 195.233 253.183 L 195.233 253.183 L 195.233 253.183 L 195.233 253.183 L 195.233 253.183 L 195.233 253.183 L 195.233 253.183 L 195.233 253.183 Z  M 320.229 240.754 L 320.229 240.754 Q 318.797 240.754 316.991 245.62 L 316.991 245.62 L 316.991 245.62 Q 315.186 250.486 313.816 257.698 L 313.816 257.698 L 313.816 257.698 Q 312.446 264.909 312.321 271.534 L 312.321 271.534 L 312.321 271.534 Q 316.742 264.675 319.357 257.786 L 319.357 257.786 L 319.357 257.786 Q 321.972 250.897 321.972 245.21 L 321.972 245.21 L 321.972 245.21 Q 321.972 240.754 320.229 240.754 L 320.229 240.754 L 320.229 240.754 L 320.229 240.754 L 320.229 240.754 L 320.229 240.754 L 320.229 240.754 L 320.229 240.754 Z  M 299.931 240.754 L 299.931 240.754 Q 298.499 240.754 296.693 245.62 L 296.693 245.62 L 296.693 245.62 Q 294.888 250.486 293.518 257.698 L 293.518 257.698 L 293.518 257.698 Q 292.148 264.909 292.023 271.534 L 292.023 271.534 L 292.023 271.534 Q 296.444 264.675 299.059 257.786 L 299.059 257.786 L 299.059 257.786 Q 301.674 250.897 301.674 245.21 L 301.674 245.21 L 301.674 245.21 Q 301.674 240.754 299.931 240.754 L 299.931 240.754 L 299.931 240.754 L 299.931 240.754 L 299.931 240.754 L 299.931 240.754 L 299.931 240.754 Z  M 276.831 258.87 L 276.831 258.87 Q 274.216 258.87 272.908 257.727 L 272.908 257.727 L 272.908 257.727 Q 271.601 256.584 271.601 254.532 L 271.601 254.532 L 271.601 254.532 Q 271.601 252.48 273.313 251.102 L 273.313 251.102 L 273.313 251.102 Q 275.025 249.724 277.578 249.724 L 277.578 249.724 L 277.578 249.724 Q 279.882 249.724 281.314 250.78 L 281.314 250.78 L 281.314 250.78 Q 282.746 251.835 282.746 253.77 L 282.746 253.77 L 282.746 253.77 Q 282.746 256.115 281.127 257.493 L 281.127 257.493 L 281.127 257.493 Q 279.508 258.87 276.831 258.87 L 276.831 258.87 L 276.831 258.87 L 276.831 258.87 Z  M 97.289 68.355 L 414.711 68.355 C 430.647 68.355 443.568 81.275 443.568 97.211 L 443.568 414.789 C 443.568 430.725 430.647 443.645 414.711 443.645 L 97.289 443.645 C 81.353 443.645 68.432 430.725 68.432 414.789 L 68.432 97.211 C 68.432 81.275 81.353 68.355 97.289 68.355 L 97.289 68.355 L 97.289 68.355 L 97.289 68.355 L 97.289 68.355 L 97.289 68.355 L 97.289 68.355 L 97.289 68.355 Z  M 218.428 284.433 L 218.428 284.433 Q 219.797 284.433 221.043 282.908 L 221.043 282.908 L 221.043 282.908 Q 222.288 281.384 222.848 278.863 L 222.848 278.863 L 225.152 268.075 L 225.152 268.075 Q 222.537 268.134 220.327 269.922 L 220.327 269.922 L 220.327 269.922 Q 218.116 271.71 216.809 274.642 L 216.809 274.642 L 216.809 274.642 Q 215.501 277.573 215.501 280.856 L 215.501 280.856 L 215.501 280.856 Q 215.501 282.674 216.279 283.553 L 216.279 283.553 L 216.279 283.553 Q 217.058 284.433 218.428 284.433 L 218.428 284.433 L 218.428 284.433 Z " fill-rule="evenodd" fill="rgb(0,0,0)"/></g></svg>