<?xml version="1.0" encoding="UTF-8" standalone="no"?><!-- Generator: Gravit.io --><svg xmlns="http://www.w3.org/2000/svg" xmlns:xlink="http://www.w3.org/1999/xlink" style="isolation:isolate" viewBox="0 0 512 512" width="512pt" height="512pt"><defs><clipPath id="_clipPath_n3wNgpVGGV9GeF6V986yQAfevzCHnxXP"><rect width="512" height="512"/></clipPath></defs><g clip-path="url(#_clipPath_n3wNgpVGGV9GeF6V986yQAfevzCHnxXP)"><path d=" M 86.52 24.667 L 425.48 24.667 C 455.018 24.667 479 48.648 479 78.187 L 479 417.147 C 479 446.685 455.018 470.667 425.48 470.667 L 86.52 470.667 C 56.982 470.667 33 446.685 33 417.147 L 33 78.187 C 33 48.648 56.982 24.667 86.52 24.667 Z  M 265.239 256 C 265.239 222.461 292.469 195.231 326.008 195.231 C 359.547 195.231 386.777 222.461 386.777 256 C 386.777 289.539 359.547 316.769 326.008 316.769 C 292.469 316.769 265.239 289.539 265.239 256 L 265.239 256 Z  M 175.886 176.327 L 336.114 176.327 C 373.051 176.327 403.039 206.315 403.039 243.252 L 403.039 268.748 C 403.039 305.685 373.051 335.673 336.114 335.673 L 175.886 335.673 C 138.949 335.673 108.961 305.685 108.961 268.748 L 108.961 243.252 C 108.961 206.315 138.949 176.327 175.886 176.327 L 175.886 176.327 Z " fill-rule="evenodd" fill="rgb(0,0,0)"/></g></svg>