<svg width="16" height="16" viewBox="0 0 16 16" fill="none" xmlns="http://www.w3.org/2000/svg">
<path fill-rule="evenodd" clip-rule="evenodd" d="M5.74991 2C5.74991 1.58579 5.41412 1.25 4.99991 1.25C4.5857 1.25 4.24991 1.58579 4.24991 2L3 2C2.44772 2 2 2.44772 2 3V4.33333H1.91675C1.50254 4.33333 1.16675 4.66911 1.16675 5.08333C1.16675 5.49754 1.50253 5.83333 1.91675 5.83333H2V7.33333H1.91675C1.50253 7.33333 1.16675 7.66911 1.16675 8.08333C1.16675 8.49754 1.50253 8.83333 1.91675 8.83333H2V10.3333H1.91675C1.50253 10.3333 1.16675 10.6691 1.16675 11.0833C1.16675 11.4975 1.50253 11.8333 1.91675 11.8333H2V13C2 13.5523 2.44772 14 3 14H4.24991V14.1667C4.24991 14.5809 4.5857 14.9167 4.99991 14.9167C5.41412 14.9167 5.74991 14.5809 5.74991 14.1667V14H7.24991V14.1667C7.24991 14.5809 7.58569 14.9167 7.99991 14.9167C8.41412 14.9167 8.74991 14.5809 8.74991 14.1667V14H10.2499V14.1667C10.2499 14.5809 10.5857 14.9167 10.9999 14.9167C11.4141 14.9167 11.7499 14.5809 11.7499 14.1667V14H13C13.5523 14 14 13.5523 14 13V11.8333H14.0834C14.4976 11.8333 14.8334 11.4975 14.8334 11.0833C14.8334 10.6691 14.4976 10.3333 14.0834 10.3333H14V8.83333H14.0834C14.4976 8.83333 14.8334 8.49754 14.8334 8.08333C14.8334 7.66912 14.4976 7.33333 14.0834 7.33333H14V5.83333H14.0834C14.4976 5.83333 14.8334 5.49754 14.8334 5.08333C14.8334 4.66912 14.4976 4.33333 14.0834 4.33333H14V3C14 2.44772 13.5523 2 13 2L11.7499 2C11.7499 1.58579 11.4141 1.25 10.9999 1.25C10.5857 1.25 10.2499 1.58579 10.2499 2L8.74991 2C8.74991 1.58579 8.41412 1.25 7.99991 1.25C7.5857 1.25 7.24991 1.58579 7.24991 2L5.74991 2ZM6.16666 5.66666C5.89051 5.66666 5.66666 5.89051 5.66666 6.16666V9.83332C5.66666 10.1095 5.89051 10.3333 6.16666 10.3333H9.83332C10.1095 10.3333 10.3333 10.1095 10.3333 9.83332V6.16666C10.3333 5.89051 10.1095 5.66666 9.83332 5.66666H6.16666Z" fill="black"/>
</svg>
