<?xml version="1.0" encoding="UTF-8" standalone="no"?><!-- Generator: Gravit.io --><svg xmlns="http://www.w3.org/2000/svg" xmlns:xlink="http://www.w3.org/1999/xlink" style="isolation:isolate" viewBox="0 0 512 512" width="512pt" height="512pt"><defs><clipPath id="_clipPath_seshUFZjZIwGCbFCsq1AYU08Pp6bocs5"><rect width="512" height="512"/></clipPath></defs><g clip-path="url(#_clipPath_seshUFZjZIwGCbFCsq1AYU08Pp6bocs5)"><defs><linearGradient id="_lgradient_0" x1="0" y1="0.5" x2="1" y2="0.5"><stop offset="0%" style="stop-color:#1A4375"/><stop offset="51.66666666666667%" style="stop-color:#2C75CE"/><stop offset="100%" style="stop-color:#1A4375"/></linearGradient></defs><path d="M 132.32 140.709 L 379.68 140.709 C 436.704 140.709 483 187.005 483 244.029 L 483 283.389 C 483 340.413 436.704 386.709 379.68 386.709 L 132.32 386.709 C 75.296 386.709 29 340.413 29 283.389 L 29 244.029 C 29 187.005 75.296 140.709 132.32 140.709 Z" style="stroke:none;fill:url(#_lgradient_0);stroke-miterlimit:10;"/><path d="M 132.32 125.291 L 379.68 125.291 C 436.704 125.291 483 171.587 483 228.611 L 483 267.971 C 483 324.995 436.704 371.291 379.68 371.291 L 132.32 371.291 C 75.296 371.291 29 324.995 29 267.971 L 29 228.611 C 29 171.587 75.296 125.291 132.32 125.291 Z" style="stroke:none;fill:#3584E4;stroke-miterlimit:10;"/><g><path d=" M 272.149 248.059 C 272.048 249.829 272 256.497 272 258.293 C 272 312.38 315.912 351.408 370 351.408 C 424.088 351.408 468 312.38 468 258.293 C 468 256.497 467.952 249.829 467.851 248.059 C 465.074 299.663 422.292 340.709 370 340.709 C 317.708 340.709 274.926 299.663 272.149 248.059 Z " fill="rgb(181,181,181)"/><linearGradient id="_lgradient_1" x1="0" y1="0.5" x2="1" y2="0.5" gradientTransform="matrix(196,0,0,103.35,272,248.524)" gradientUnits="userSpaceOnUse"><stop offset="0%" stop-opacity="1" style="stop-color:rgb(183,183,183)"/><stop offset="52.083333333333336%" stop-opacity="1" style="stop-color:rgb(223,223,223)"/><stop offset="100%" stop-opacity="1" style="stop-color:rgb(183,183,183)"/></linearGradient><path d=" M 272.149 248.524 C 272.048 250.294 272 256.963 272 258.758 C 272 312.846 315.912 351.873 370 351.873 C 424.088 351.873 468 312.846 468 258.758 C 468 256.963 467.952 250.294 467.851 248.524 C 465.074 300.128 422.292 341.174 370 341.174 C 317.708 341.174 274.926 300.128 272.149 248.524 Z " fill="url(#_lgradient_1)"/><circle vector-effect="non-scaling-stroke" cx="370.0000002957589" cy="242.70886062003643" r="97.99999970423937" fill="rgb(244,244,244)"/></g><g><g><path d=" M 422.634 264.803 C 421.017 264.803 419.697 264.228 418.675 263.078 C 417.695 261.927 417.186 260.432 417.186 258.553 C 417.186 256.52 417.695 254.564 418.76 252.723 C 419.824 250.921 421.229 249.425 422.975 248.313 C 424.72 247.201 426.55 246.664 428.509 246.664 C 429.147 246.664 429.573 246.779 429.785 246.971 C 429.997 247.201 430.169 247.585 430.296 248.16 C 430.85 248.045 431.445 248.006 432.083 248.006 C 432.764 248.006 433.276 248.16 433.659 248.467 C 434.042 248.773 434.212 249.195 434.212 249.771 C 434.212 250.346 434.085 251.381 433.786 252.838 C 433.488 254.411 433.233 255.868 433.063 257.287 C 432.893 258.706 432.807 260.317 432.807 262.081 C 432.807 263.039 432.595 263.73 432.169 264.151 C 431.701 264.573 430.978 264.803 429.997 264.803 C 429.018 264.803 428.337 264.573 427.828 264.151 C 427.402 263.73 427.146 263.078 427.146 262.119 L 427.189 261.505 C 426.294 263.691 424.805 264.803 422.634 264.803 Z  M 424.294 260.93 C 425.103 260.93 425.827 260.432 426.465 259.435 C 427.104 258.437 427.699 256.673 428.211 254.104 L 429.018 250.231 C 427.87 250.269 426.763 250.653 425.784 251.42 C 424.805 252.225 423.996 253.26 423.4 254.526 C 422.805 255.791 422.507 257.172 422.507 258.591 C 422.507 259.358 422.677 259.933 423.017 260.317 C 423.315 260.738 423.741 260.93 424.294 260.93 Z " fill="rgb(185,185,185)"/></g><clipPath id="_clipPath_Uu8ltb60PJas0Suw9iYffaEikJXlIc4A"><rect x="305.788" y="214.643" width="34.29" height="67.297" transform="matrix(1,0,0,1,0,0)" fill="rgb(255,255,255)"/></clipPath><g clip-path="url(#_clipPath_Uu8ltb60PJas0Suw9iYffaEikJXlIc4A)"><g><g><path d=" M 342.547 248.056 L 342.547 248.056 Q 343.525 248.056 343.972 248.439 L 343.972 248.439 L 343.972 248.439 Q 344.419 248.823 344.419 249.436 L 344.419 249.436 L 344.419 249.436 Q 344.419 250.432 343.758 251.199 L 343.758 251.199 L 343.758 251.199 Q 343.1 251.965 341.696 252.003 L 341.696 252.003 L 341.696 252.003 Q 338.292 252.08 335.655 251.544 L 335.655 251.544 L 335.655 251.544 Q 332.633 257.254 328.357 261.029 L 328.357 261.029 L 328.357 261.029 Q 324.082 264.804 319.785 264.804 L 319.785 264.804 L 319.785 264.804 Q 315.361 264.804 313.191 260.166 L 313.191 260.166 L 313.191 260.166 Q 311.021 255.529 311.021 247.634 L 311.021 247.634 L 311.021 247.634 Q 311.021 240.889 312.085 235.524 L 312.085 235.524 L 312.085 235.524 Q 312.467 233.531 313.17 232.822 L 313.17 232.822 L 313.17 232.822 Q 313.872 232.113 315.573 232.113 L 315.573 232.113 L 315.573 232.113 Q 318.381 232.113 318.381 234.298 L 318.381 234.298 L 318.381 234.298 Q 318.381 234.528 318.296 235.141 L 318.296 235.141 L 318.296 235.141 Q 317.02 242.039 317.02 247.634 L 317.02 247.634 L 317.02 247.634 Q 317.02 253.498 318.105 256.545 L 318.105 256.545 L 318.105 256.545 Q 319.189 259.592 321.359 259.592 L 321.359 259.592 L 321.359 259.592 Q 323.572 259.592 326.167 256.832 L 326.167 256.832 L 326.167 256.832 Q 328.762 254.073 330.932 249.896 L 330.932 249.896 L 330.932 249.896 Q 328.337 248.439 327.018 246.121 L 327.018 246.121 L 327.018 246.121 Q 325.699 243.802 325.699 240.774 L 325.699 240.774 L 325.699 240.774 Q 325.699 237.747 326.741 235.658 L 326.741 235.658 L 326.741 235.658 Q 327.784 233.57 329.592 232.535 L 329.592 232.535 L 329.592 232.535 Q 331.4 231.5 333.612 231.5 L 333.612 231.5 L 333.612 231.5 Q 336.335 231.5 337.931 233.263 L 337.931 233.263 L 337.931 233.263 Q 339.525 235.026 339.525 238.092 L 339.525 238.092 L 339.525 238.092 Q 339.525 242.499 337.398 247.711 L 337.398 247.711 L 337.398 247.711 Q 339.654 248.056 342.547 248.056 L 342.547 248.056 L 342.547 248.056 Z  M 329.995 240.506 L 329.995 240.506 Q 329.995 244.262 332.676 246.063 L 332.676 246.063 L 332.676 246.063 Q 334.336 241.771 334.336 238.973 L 334.336 238.973 L 334.336 238.973 Q 334.336 237.364 333.868 236.616 L 333.868 236.616 L 333.868 236.616 Q 333.4 235.869 332.591 235.869 L 332.591 235.869 L 332.591 235.869 Q 331.443 235.869 330.719 237.076 L 330.719 237.076 L 330.719 237.076 Q 329.995 238.283 329.995 240.506 L 329.995 240.506 L 329.995 240.506 Z " fill-rule="evenodd" fill="rgb(185,185,185)"/></g></g></g><clipPath id="_clipPath_DANeFulRThab8VdQemMVVex48P8LJhl4"><rect x="336.733" y="214.643" width="80.645" height="67.297" transform="matrix(1,0,0,1,0,0)" fill="rgb(255,255,255)"/></clipPath><g clip-path="url(#_clipPath_DANeFulRThab8VdQemMVVex48P8LJhl4)"><g><g><path d=" M 343.693 264.804 L 343.693 264.804 Q 341.169 264.804 339.663 263.079 L 339.663 263.079 L 339.663 263.079 Q 338.157 261.354 338.157 258.557 L 338.157 258.557 L 338.157 258.557 Q 338.157 255.491 339.663 252.751 L 339.663 252.751 L 339.663 252.751 Q 341.169 250.011 343.672 248.343 L 343.672 248.343 L 343.672 248.343 Q 346.175 246.676 348.984 246.676 L 348.984 246.676 L 348.984 246.676 Q 349.879 246.676 350.184 247.002 L 350.184 247.002 L 350.184 247.002 Q 350.49 247.328 350.693 248.171 L 350.693 248.171 L 350.693 248.171 Q 351.548 248.018 352.484 248.018 L 352.484 248.018 L 352.484 248.018 Q 354.478 248.018 354.478 249.359 L 354.478 249.359 L 354.478 249.359 Q 354.478 250.164 353.868 253.191 L 353.868 253.191 L 353.868 253.191 Q 352.932 257.599 352.932 259.323 L 352.932 259.323 L 352.932 259.323 Q 352.932 259.898 353.237 260.243 L 353.237 260.243 L 353.237 260.243 Q 353.542 260.588 354.03 260.588 L 354.03 260.588 L 354.03 260.588 Q 354.803 260.588 355.903 259.649 L 355.903 259.649 L 355.903 259.649 Q 357.002 258.71 358.874 256.602 L 358.874 256.602 L 358.874 256.602 Q 359.362 256.066 359.973 256.066 L 359.973 256.066 L 359.973 256.066 Q 360.502 256.066 360.807 256.526 L 360.807 256.526 L 360.807 256.526 Q 361.112 256.986 361.112 257.79 L 361.112 257.79 L 361.112 257.79 Q 361.112 259.323 360.339 260.166 L 360.339 260.166 L 360.339 260.166 Q 358.67 262.121 356.798 263.462 L 356.798 263.462 L 356.798 263.462 Q 354.926 264.804 353.176 264.804 L 353.176 264.804 L 353.176 264.804 Q 351.833 264.804 350.713 263.941 L 350.713 263.941 L 350.713 263.941 Q 349.594 263.079 349.023 261.584 L 349.023 261.584 L 349.023 261.584 Q 346.908 264.804 343.693 264.804 L 343.693 264.804 Z  M 345.158 260.933 L 345.158 260.933 Q 346.053 260.933 346.867 259.936 L 346.867 259.936 L 346.867 259.936 Q 347.681 258.94 348.048 257.292 L 348.048 257.292 L 349.553 250.241 L 349.553 250.241 Q 347.844 250.279 346.398 251.448 L 346.398 251.448 L 346.398 251.448 Q 344.954 252.617 344.1 254.533 L 344.1 254.533 L 344.1 254.533 Q 343.245 256.449 343.245 258.595 L 343.245 258.595 L 343.245 258.595 Q 343.245 259.783 343.754 260.358 L 343.754 260.358 L 343.754 260.358 Q 344.262 260.933 345.158 260.933 L 345.158 260.933 Z " fill-rule="evenodd" fill="rgb(185,185,185)"/><path d=" M 360.704 264.804 L 360.704 264.804 Q 359.159 264.804 358.528 263.271 L 358.528 263.271 L 358.528 263.271 Q 357.897 261.738 357.897 258.365 L 357.897 258.365 L 357.897 258.365 Q 357.897 253.383 359.403 248.899 L 359.403 248.899 L 359.403 248.899 Q 359.769 247.788 360.603 247.27 L 360.603 247.27 L 360.603 247.27 Q 361.438 246.753 362.944 246.753 L 362.944 246.753 L 362.944 246.753 Q 363.758 246.753 364.083 246.945 L 364.083 246.945 L 364.083 246.945 Q 364.409 247.136 364.409 247.673 L 364.409 247.673 L 364.409 247.673 Q 364.409 248.286 363.798 250.432 L 363.798 250.432 L 363.798 250.432 Q 363.391 251.965 363.147 253.115 L 363.147 253.115 L 363.147 253.115 Q 362.903 254.265 362.74 255.951 L 362.74 255.951 L 362.74 255.951 Q 364.083 252.655 365.752 250.585 L 365.752 250.585 L 365.752 250.585 Q 367.421 248.516 369.028 247.634 L 369.028 247.634 L 369.028 247.634 Q 370.635 246.753 371.979 246.753 L 371.979 246.753 L 371.979 246.753 Q 374.625 246.753 374.625 249.244 L 374.625 249.244 L 374.625 249.244 Q 374.625 250.739 373.729 254.648 L 373.729 254.648 L 373.729 254.648 Q 372.956 257.982 372.956 259.055 L 372.956 259.055 L 372.956 259.055 Q 372.956 260.588 374.135 260.588 L 374.135 260.588 L 374.135 260.588 Q 374.949 260.588 376.069 259.649 L 376.069 259.649 L 376.069 259.649 Q 377.189 258.71 379.061 256.602 L 379.061 256.602 L 379.061 256.602 Q 379.548 256.066 380.16 256.066 L 380.16 256.066 L 380.16 256.066 Q 380.689 256.066 380.994 256.526 L 380.994 256.526 L 380.994 256.526 Q 381.298 256.986 381.298 257.79 L 381.298 257.79 L 381.298 257.79 Q 381.298 259.323 380.526 260.166 L 380.526 260.166 L 380.526 260.166 Q 378.776 262.198 376.76 263.501 L 376.76 263.501 L 376.76 263.501 Q 374.746 264.804 372.182 264.804 L 372.182 264.804 L 372.182 264.804 Q 370.107 264.804 369.049 263.673 L 369.049 263.673 L 369.049 263.673 Q 367.991 262.543 367.991 260.396 L 367.991 260.396 L 367.991 260.396 Q 367.991 259.323 368.56 256.564 L 368.56 256.564 L 368.56 256.564 Q 369.089 254.15 369.089 253.23 L 369.089 253.23 L 369.089 253.23 Q 369.089 252.617 368.642 252.617 L 368.642 252.617 L 368.642 252.617 Q 368.113 252.617 367.156 253.9 L 367.156 253.9 L 367.156 253.9 Q 366.2 255.184 365.202 257.292 L 365.202 257.292 L 365.202 257.292 Q 364.204 259.4 363.594 261.738 L 363.594 261.738 L 363.594 261.738 Q 363.147 263.539 362.557 264.171 L 362.557 264.171 L 362.557 264.171 Q 361.967 264.804 360.704 264.804 L 360.704 264.804 Z " fill="rgb(185,185,185)"/><path d=" M 383.333 244.224 L 383.333 244.224 Q 381.625 244.224 380.77 243.476 L 380.77 243.476 L 380.77 243.476 Q 379.915 242.729 379.915 241.388 L 379.915 241.388 L 379.915 241.388 Q 379.915 240.046 381.035 239.146 L 381.035 239.146 L 381.035 239.146 Q 382.154 238.245 383.823 238.245 L 383.823 238.245 L 383.823 238.245 Q 385.328 238.245 386.264 238.935 L 386.264 238.935 L 386.264 238.935 Q 387.201 239.625 387.201 240.889 L 387.201 240.889 L 387.201 240.889 Q 387.201 242.422 386.143 243.323 L 386.143 243.323 L 386.143 243.323 Q 385.083 244.224 383.333 244.224 L 383.333 244.224 Z " fill="rgb(185,185,185)"/><path d=" M 383.009 264.804 L 383.009 264.804 Q 380.363 264.804 379.163 263.041 L 379.163 263.041 L 379.163 263.041 Q 377.962 261.278 377.962 258.365 L 377.962 258.365 L 377.962 258.365 Q 377.962 256.641 378.43 253.939 L 378.43 253.939 L 378.43 253.939 Q 378.897 251.237 379.63 248.899 L 379.63 248.899 L 379.63 248.899 Q 379.996 247.673 380.607 247.213 L 380.607 247.213 L 380.607 247.213 Q 381.217 246.753 382.561 246.753 L 382.561 246.753 L 382.561 246.753 Q 384.637 246.753 384.637 248.056 L 384.637 248.056 L 384.637 248.056 Q 384.637 249.014 383.863 252.502 L 383.863 252.502 L 383.863 252.502 Q 382.887 256.717 382.887 258.212 L 382.887 258.212 L 382.887 258.212 Q 382.887 259.362 383.212 259.975 L 383.212 259.975 L 383.212 259.975 Q 383.538 260.588 384.311 260.588 L 384.311 260.588 L 384.311 260.588 Q 385.044 260.588 386.143 259.63 L 386.143 259.63 L 386.143 259.63 Q 387.242 258.672 389.073 256.602 L 389.073 256.602 L 389.073 256.602 Q 389.561 256.066 390.172 256.066 L 390.172 256.066 L 390.172 256.066 Q 390.701 256.066 391.005 256.526 L 391.005 256.526 L 391.005 256.526 Q 391.311 256.986 391.311 257.79 L 391.311 257.79 L 391.311 257.79 Q 391.311 259.323 390.538 260.166 L 390.538 260.166 L 390.538 260.166 Q 386.509 264.804 383.009 264.804 L 383.009 264.804 Z " fill="rgb(185,185,185)"/><path d=" M 403.44 256.066 L 403.44 256.066 Q 403.969 256.066 404.273 256.526 L 404.273 256.526 L 404.273 256.526 Q 404.579 256.986 404.579 257.79 L 404.579 257.79 L 404.579 257.79 Q 404.579 259.323 403.806 260.166 L 403.806 260.166 L 403.806 260.166 Q 402.056 262.198 400.001 263.501 L 400.001 263.501 L 400.001 263.501 Q 397.945 264.804 395.341 264.804 L 395.341 264.804 L 395.341 264.804 Q 391.759 264.804 390.029 261.738 L 390.029 261.738 L 390.029 261.738 Q 388.3 258.672 388.3 253.805 L 388.3 253.805 L 388.3 253.805 Q 388.3 249.129 389.582 243.151 L 389.582 243.151 L 389.582 243.151 Q 390.863 237.172 393.367 232.88 L 393.367 232.88 L 393.367 232.88 Q 395.87 228.587 399.328 228.587 L 399.328 228.587 L 399.328 228.587 Q 401.283 228.587 402.402 230.293 L 402.402 230.293 L 402.402 230.293 Q 403.521 231.998 403.521 235.179 L 403.521 235.179 L 403.521 235.179 Q 403.521 239.74 400.835 245.757 L 400.835 245.757 L 400.835 245.757 Q 398.148 251.773 393.55 257.675 L 393.55 257.675 L 393.55 257.675 Q 393.835 259.247 394.486 259.917 L 394.486 259.917 L 394.486 259.917 Q 395.137 260.588 396.195 260.588 L 396.195 260.588 L 396.195 260.588 Q 397.863 260.588 399.126 259.687 L 399.126 259.687 L 399.126 259.687 Q 400.388 258.787 402.341 256.602 L 402.341 256.602 L 402.341 256.602 Q 402.829 256.066 403.44 256.066 L 403.44 256.066 Z  M 398.434 232.382 L 398.434 232.382 Q 397.497 232.382 396.318 235.562 L 396.318 235.562 L 396.318 235.562 Q 395.137 238.743 394.242 243.457 L 394.242 243.457 L 394.242 243.457 Q 393.346 248.171 393.264 252.502 L 393.264 252.502 L 393.264 252.502 Q 396.155 248.018 397.863 243.515 L 397.863 243.515 L 397.863 243.515 Q 399.574 239.012 399.574 235.294 L 399.574 235.294 L 399.574 235.294 Q 399.574 232.382 398.434 232.382 L 398.434 232.382 Z " fill-rule="evenodd" fill="rgb(185,185,185)"/><path d=" M 416.708 256.066 L 416.708 256.066 Q 417.237 256.066 417.543 256.526 L 417.543 256.526 L 417.543 256.526 Q 417.848 256.986 417.848 257.79 L 417.848 257.79 L 417.848 257.79 Q 417.848 259.323 417.074 260.166 L 417.074 260.166 L 417.074 260.166 Q 415.324 262.198 413.268 263.501 L 413.268 263.501 L 413.268 263.501 Q 411.214 264.804 408.608 264.804 L 408.608 264.804 L 408.608 264.804 Q 405.027 264.804 403.298 261.738 L 403.298 261.738 L 403.298 261.738 Q 401.568 258.672 401.568 253.805 L 401.568 253.805 L 401.568 253.805 Q 401.568 249.129 402.85 243.151 L 402.85 243.151 L 402.85 243.151 Q 404.132 237.172 406.634 232.88 L 406.634 232.88 L 406.634 232.88 Q 409.138 228.587 412.598 228.587 L 412.598 228.587 L 412.598 228.587 Q 414.551 228.587 415.669 230.293 L 415.669 230.293 L 415.669 230.293 Q 416.789 231.998 416.789 235.179 L 416.789 235.179 L 416.789 235.179 Q 416.789 239.74 414.103 245.757 L 414.103 245.757 L 414.103 245.757 Q 411.417 251.773 406.818 257.675 L 406.818 257.675 L 406.818 257.675 Q 407.103 259.247 407.754 259.917 L 407.754 259.917 L 407.754 259.917 Q 408.405 260.588 409.464 260.588 L 409.464 260.588 L 409.464 260.588 Q 411.132 260.588 412.393 259.687 L 412.393 259.687 L 412.393 259.687 Q 413.656 258.787 415.608 256.602 L 415.608 256.602 L 415.608 256.602 Q 416.098 256.066 416.708 256.066 L 416.708 256.066 Z  M 411.702 232.382 L 411.702 232.382 Q 410.766 232.382 409.586 235.562 L 409.586 235.562 L 409.586 235.562 Q 408.405 238.743 407.509 243.457 L 407.509 243.457 L 407.509 243.457 Q 406.615 248.171 406.533 252.502 L 406.533 252.502 L 406.533 252.502 Q 409.423 248.018 411.132 243.515 L 411.132 243.515 L 411.132 243.515 Q 412.841 239.012 412.841 235.294 L 412.841 235.294 L 412.841 235.294 Q 412.841 232.382 411.702 232.382 L 411.702 232.382 Z " fill-rule="evenodd" fill="rgb(185,185,185)"/></g></g></g></g></g></svg>