<?xml version="1.0" encoding="UTF-8" standalone="no"?><!-- Generator: Gravit.io --><svg xmlns="http://www.w3.org/2000/svg" xmlns:xlink="http://www.w3.org/1999/xlink" style="isolation:isolate" viewBox="0 0 512 512" width="512pt" height="512pt"><defs><clipPath id="_clipPath_tBpaqtgonduIqUI0IoXepj4LSLvQISnE"><rect width="512" height="512"/></clipPath></defs><g clip-path="url(#_clipPath_tBpaqtgonduIqUI0IoXepj4LSLvQISnE)"><defs><linearGradient id="_lgradient_0" x1="0" y1="0.5" x2="1" y2="0.5"><stop offset="0%" style="stop-color:#B0B0B0"/><stop offset="46.25%" style="stop-color:#D2D2D2"/><stop offset="100%" style="stop-color:#B0B0B0"/></linearGradient></defs><path d="M 86.52 41.333 L 425.48 41.333 C 455.018 41.333 479 65.315 479 94.853 L 479 433.813 C 479 463.352 455.018 487.333 425.48 487.333 L 86.52 487.333 C 56.982 487.333 33 463.352 33 433.813 L 33 94.853 C 33 65.315 56.982 41.333 86.52 41.333 Z" style="stroke:none;fill:url(#_lgradient_0);stroke-miterlimit:10;"/><path d="M 86.52 24.667 L 425.48 24.667 C 455.018 24.667 479 48.648 479 78.187 L 479 417.147 C 479 446.685 455.018 470.667 425.48 470.667 L 86.52 470.667 C 56.982 470.667 33 446.685 33 417.147 L 33 78.187 C 33 48.648 56.982 24.667 86.52 24.667 Z" style="stroke:none;fill:#FFFFFF;stroke-miterlimit:10;"/><g><linearGradient id="_lgradient_1" x1="0" y1="0.5" x2="1" y2="0.5" gradientTransform="matrix(294.078,0,0,161.776,108.961,176.891)" gradientUnits="userSpaceOnUse"><stop offset="0.4166666666666667%" stop-opacity="1" style="stop-color:rgb(35,92,162)"/><stop offset="51.24999999999999%" stop-opacity="1" style="stop-color:rgb(43,110,191)"/><stop offset="100%" stop-opacity="1" style="stop-color:rgb(35,92,162)"/></linearGradient><path d=" M 175.886 176.891 L 336.114 176.891 C 373.051 176.891 403.039 206.879 403.039 243.816 L 403.039 271.741 C 403.039 308.678 373.051 338.667 336.114 338.667 L 175.886 338.667 C 138.949 338.667 108.961 308.678 108.961 271.741 L 108.961 243.816 C 108.961 206.879 138.949 176.891 175.886 176.891 Z " fill="url(#_lgradient_1)"/><path d=" M 175.886 166.904 L 336.114 166.904 C 373.051 166.904 403.039 196.892 403.039 233.829 L 403.039 259.324 C 403.039 296.262 373.051 326.25 336.114 326.25 L 175.886 326.25 C 138.949 326.25 108.961 296.262 108.961 259.324 L 108.961 233.829 C 108.961 196.892 138.949 166.904 175.886 166.904 Z " fill="rgb(53,132,228)"/><g><linearGradient id="_lgradient_2" x1="0" y1="0.5" x2="1" y2="0.5" gradientTransform="matrix(121.538,0,0,66.616,265.239,245.384)" gradientUnits="userSpaceOnUse"><stop offset="0%" stop-opacity="1" style="stop-color:rgb(176,176,176)"/><stop offset="46.25%" stop-opacity="1" style="stop-color:rgb(210,210,210)"/><stop offset="100%" stop-opacity="1" style="stop-color:rgb(176,176,176)"/></linearGradient><path d=" M 265.331 245.384 C 265.269 246.481 265.239 253.147 265.239 254.26 C 265.239 287.8 292.468 312 326.008 312 C 359.547 312 386.777 287.8 386.777 254.26 C 386.777 253.147 386.747 246.481 386.684 245.384 C 384.962 277.383 358.434 302.835 326.008 302.835 C 293.582 302.835 267.053 277.383 265.331 245.384 Z " fill="url(#_lgradient_2)"/><circle vector-effect="non-scaling-stroke" cx="326.0078346708526" cy="242.39802049797245" r="60.76884508627825" fill="rgb(244,244,244)"/></g></g></g></svg>